<?xml version="1.0" encoding="utf-8"?>
<!-- Generator: Adobe Illustrator 17.1.0, SVG Export Plug-In . SVG Version: 6.00 Build 0)  -->
<!DOCTYPE svg PUBLIC "-//W3C//DTD SVG 1.1//EN" "http://www.w3.org/Graphics/SVG/1.1/DTD/svg11.dtd">
<svg version="1.1" id="Layer_1" xmlns="http://www.w3.org/2000/svg" xmlns:xlink="http://www.w3.org/1999/xlink" x="0px" y="0px"
	 viewBox="0 0 50 50" enable-background="new 0 0 50 50" xml:space="preserve">
<g>
	<path fill="#FFFFFF" d="M25,0C11.193,0,0,11.192,0,25c0,13.808,11.193,25,25,25c13.807,0,25-11.192,25-25C50,11.192,38.807,0,25,0z
		 M25,46.774C12.974,46.774,3.226,37.026,3.226,25C3.226,12.974,12.974,3.226,25,3.226c12.025,0,21.774,9.748,21.774,21.774
		C46.774,37.026,37.025,46.774,25,46.774z"/>
	<path fill="#FFFFFF" d="M21.457,39.063h5.623V24.982h3.923l0.418-4.715H27.08c0,0,0-1.76,0-2.685c0-1.112,0.223-1.551,1.298-1.551
		c0.865,0,3.043,0,3.043,0v-4.893c0,0-3.208,0-3.894,0c-4.184,0-6.071,1.843-6.071,5.37c0,3.073,0,3.759,0,3.759h-2.925v4.774h2.925
		V39.063z"/>
</g>
</svg>
