<?xml version="1.0" encoding="utf-8"?>
<!-- Generator: Adobe Illustrator 17.1.0, SVG Export Plug-In . SVG Version: 6.00 Build 0)  -->
<!DOCTYPE svg PUBLIC "-//W3C//DTD SVG 1.1//EN" "http://www.w3.org/Graphics/SVG/1.1/DTD/svg11.dtd">
<svg version="1.1" id="Layer_1" xmlns="http://www.w3.org/2000/svg" xmlns:xlink="http://www.w3.org/1999/xlink" x="0px" y="0px"
	 viewBox="0 0 98.879 15" enable-background="new 0 0 98.879 15" xml:space="preserve">
<g>
	<path fill="#FFFFFF" d="M0,0.364h4.254c0.538,0,1.082,0.057,1.633,0.172s1.044,0.309,1.481,0.585
		C7.806,1.396,8.162,1.77,8.436,2.241C8.711,2.711,8.85,3.303,8.85,4.015c0,0.753-0.229,1.408-0.688,1.966
		C7.701,6.536,7.086,6.902,6.316,7.078v0.04C7.242,7.224,8.009,7.584,8.62,8.195c0.609,0.613,0.916,1.442,0.916,2.49
		c0,0.591-0.125,1.133-0.372,1.624c-0.249,0.49-0.601,0.908-1.058,1.25c-0.455,0.342-1.013,0.607-1.669,0.795
		c-0.657,0.19-1.394,0.283-2.213,0.283H0V0.364z M1.452,6.613h2.923c0.35,0,0.702-0.04,1.058-0.121
		c0.356-0.081,0.682-0.218,0.977-0.413c0.295-0.194,0.534-0.453,0.716-0.775c0.182-0.322,0.273-0.72,0.273-1.189
		c0-0.457-0.091-0.842-0.273-1.159S6.698,2.383,6.39,2.181C6.081,1.98,5.717,1.835,5.302,1.748c-0.417-0.091-0.86-0.134-1.331-0.134
		H1.452V6.613z M1.452,13.386h2.701c0.524,0,1.024-0.049,1.501-0.15c0.477-0.101,0.894-0.263,1.25-0.485
		c0.356-0.221,0.641-0.51,0.856-0.866s0.322-0.783,0.322-1.279c0-0.941-0.318-1.643-0.957-2.106
		C6.486,8.037,5.583,7.804,4.414,7.804H1.452V13.386z"/>
	<path fill="#FFFFFF" d="M17.498,14.636h-1.452V0.364h4.192c0.698,0,1.347,0.067,1.946,0.202C22.782,0.7,23.3,0.918,23.737,1.22
		s0.775,0.696,1.018,1.179c0.241,0.485,0.362,1.076,0.362,1.774c0,0.524-0.095,1.001-0.283,1.432
		c-0.188,0.431-0.443,0.803-0.765,1.119c-0.322,0.316-0.706,0.568-1.149,0.755c-0.443,0.188-0.927,0.309-1.452,0.364l4.173,6.793
		h-1.774l-3.951-6.672h-2.419V14.636z M17.498,6.714h2.519c1.169,0,2.069-0.212,2.701-0.635c0.631-0.423,0.947-1.058,0.947-1.904
		c0-0.471-0.087-0.866-0.261-1.189c-0.174-0.322-0.417-0.585-0.726-0.787c-0.309-0.202-0.686-0.35-1.129-0.443
		c-0.443-0.093-0.933-0.14-1.471-0.14h-2.581V6.714z"/>
	<path fill="#FFFFFF" d="M45.459,7.501c0,1.088-0.188,2.09-0.564,3.004c-0.376,0.914-0.898,1.703-1.562,2.369
		c-0.664,0.664-1.452,1.187-2.359,1.562S39.081,15,38.021,15c-1.062,0-2.047-0.188-2.953-0.564
		c-0.908-0.376-1.693-0.898-2.359-1.562c-0.664-0.664-1.187-1.456-1.562-2.369c-0.376-0.914-0.564-1.914-0.564-3.004
		s0.188-2.09,0.564-3.004c0.376-0.914,0.898-1.703,1.562-2.369c0.664-0.664,1.452-1.187,2.359-1.562s1.891-0.564,2.953-0.564
		c1.062,0,2.047,0.188,2.953,0.564c0.908,0.376,1.693,0.898,2.359,1.562c0.664,0.664,1.187,1.456,1.562,2.369
		C45.269,5.411,45.459,6.411,45.459,7.501z M43.926,7.511c0-0.833-0.134-1.624-0.403-2.375s-0.659-1.412-1.169-1.982
		c-0.51-0.57-1.133-1.022-1.865-1.359s-1.556-0.504-2.47-0.504c-0.914,0-1.736,0.168-2.47,0.504
		c-0.732,0.336-1.355,0.789-1.865,1.359c-0.51,0.57-0.9,1.23-1.169,1.982c-0.269,0.751-0.403,1.543-0.403,2.375
		s0.134,1.624,0.403,2.375c0.269,0.751,0.659,1.408,1.169,1.972c0.51,0.564,1.131,1.013,1.865,1.349
		c0.732,0.336,1.554,0.502,2.47,0.502c0.914,0,1.736-0.168,2.47-0.502c0.732-0.336,1.355-0.785,1.865-1.349
		c0.51-0.564,0.9-1.22,1.169-1.972C43.792,9.134,43.926,8.343,43.926,7.511z"/>
	<path fill="#FFFFFF" d="M55.155,12.641h0.04l3.568-12.277h1.734l3.568,12.277h0.04l3.488-12.277h1.533L64.91,14.636h-1.693
		L59.63,2.379h-0.04l-3.587,12.257H54.31L50.094,0.364h1.533L55.155,12.641z"/>
	<path fill="#FFFFFF" d="M81.441,2.662c-0.309-0.429-0.706-0.775-1.189-1.038S79.185,1.23,78.498,1.23
		c-0.35,0-0.706,0.053-1.068,0.162c-0.362,0.107-0.692,0.273-0.987,0.494c-0.297,0.221-0.534,0.5-0.716,0.837
		c-0.182,0.336-0.273,0.732-0.273,1.189s0.087,0.833,0.261,1.129c0.174,0.297,0.405,0.548,0.694,0.755s0.617,0.38,0.985,0.514
		c0.368,0.134,0.753,0.269,1.157,0.403c0.496,0.162,0.995,0.336,1.497,0.524s0.955,0.433,1.357,0.736
		c0.401,0.303,0.73,0.686,0.985,1.149c0.255,0.463,0.382,1.052,0.382,1.764c0,0.712-0.136,1.327-0.407,1.845
		c-0.273,0.518-0.625,0.945-1.058,1.279c-0.433,0.336-0.929,0.585-1.487,0.746C79.262,14.919,78.7,15,78.134,15
		c-0.431,0-0.86-0.044-1.289-0.131c-0.431-0.087-0.84-0.218-1.23-0.394c-0.39-0.174-0.753-0.396-1.088-0.664
		c-0.336-0.269-0.633-0.577-0.888-0.927l1.25-0.927c0.309,0.51,0.742,0.937,1.301,1.279c0.558,0.342,1.212,0.514,1.966,0.514
		c0.362,0,0.732-0.057,1.109-0.172c0.376-0.115,0.716-0.289,1.018-0.524c0.303-0.235,0.552-0.524,0.746-0.866
		c0.194-0.342,0.293-0.742,0.293-1.2c0-0.496-0.097-0.91-0.293-1.24c-0.196-0.328-0.453-0.605-0.775-0.827s-0.692-0.405-1.109-0.554
		c-0.417-0.148-0.854-0.295-1.311-0.443c-0.471-0.148-0.933-0.316-1.39-0.504c-0.457-0.188-0.866-0.433-1.23-0.736
		c-0.362-0.303-0.655-0.674-0.876-1.119c-0.221-0.445-0.332-0.989-0.332-1.633c0-0.686,0.138-1.278,0.413-1.774
		c0.275-0.496,0.635-0.908,1.078-1.23s0.933-0.558,1.471-0.706S78.036,0,78.56,0c0.967,0,1.794,0.172,2.48,0.514
		s1.202,0.75,1.552,1.22L81.441,2.662z"/>
	<path fill="#FFFFFF" d="M93.538,14.636h-1.452V8.488l-5.343-8.124h1.813l4.293,6.914l4.337-6.914h1.693l-5.341,8.124V14.636z"/>
</g>
</svg>
