<?xml version="1.0" encoding="utf-8"?>
<!-- Generator: Adobe Illustrator 17.1.0, SVG Export Plug-In . SVG Version: 6.00 Build 0)  -->
<!DOCTYPE svg PUBLIC "-//W3C//DTD SVG 1.1//EN" "http://www.w3.org/Graphics/SVG/1.1/DTD/svg11.dtd">
<svg version="1.1" id="Layer_3" xmlns="http://www.w3.org/2000/svg" xmlns:xlink="http://www.w3.org/1999/xlink" x="0px" y="0px"
	 viewBox="0 0 391.629 59.403" enable-background="new 0 0 391.629 59.403" xml:space="preserve">
<g>
	<path fill="#A38A6C" d="M0,1.437h16.847c2.128,0,4.284,0.227,6.467,0.679c2.182,0.453,4.138,1.225,5.868,2.316
		c1.729,1.092,3.14,2.568,4.232,4.431c1.091,1.864,1.637,4.206,1.637,7.026c0,2.982-0.911,5.577-2.729,7.785
		c-1.819,2.21-4.254,3.66-7.303,4.352v0.16c3.665,0.427,6.706,1.85,9.122,4.272c2.417,2.422,3.625,5.709,3.625,9.86
		c0,2.343-0.491,4.485-1.475,6.428c-0.983,1.944-2.376,3.593-4.183,4.95c-1.807,1.358-4.011,2.409-6.613,3.154
		c-2.602,0.746-5.524,1.118-8.763,1.118H0V1.437z M5.748,26.188h11.578c1.383,0,2.781-0.16,4.192-0.479
		c1.41-0.32,2.701-0.865,3.872-1.637c1.17-0.771,2.116-1.797,2.834-3.074c0.718-1.278,1.078-2.847,1.078-4.711
		c0-1.809-0.359-3.34-1.078-4.591c-0.718-1.25-1.691-2.275-2.914-3.074c-1.225-0.798-2.663-1.37-4.311-1.716
		c-1.651-0.346-3.407-0.519-5.27-0.519h-9.98V26.188z M5.748,53.016h10.699c2.076,0,4.058-0.199,5.948-0.598
		c1.889-0.399,3.539-1.038,4.95-1.916c1.41-0.878,2.541-2.022,3.393-3.433c0.851-1.41,1.277-3.1,1.277-5.07
		c0-3.725-1.265-6.508-3.792-8.344c-2.529-1.836-6.108-2.754-10.739-2.754H5.748V53.016z"/>
	<path fill="#A38A6C" d="M69.303,57.966h-5.748V1.437h16.607c2.767,0,5.336,0.267,7.705,0.798c2.368,0.533,4.418,1.397,6.148,2.595
		c1.729,1.198,3.074,2.755,4.032,4.671c0.958,1.916,1.437,4.259,1.437,7.027c0,2.076-0.373,3.966-1.118,5.668
		c-0.746,1.704-1.757,3.182-3.034,4.431c-1.278,1.251-2.795,2.249-4.551,2.994c-1.757,0.746-3.673,1.225-5.749,1.437l16.528,26.907
		h-7.026L78.884,31.538h-9.581V57.966z M69.303,26.588h9.98c4.631,0,8.197-0.839,10.699-2.515c2.501-1.677,3.752-4.192,3.752-7.545
		c0-1.863-0.347-3.434-1.038-4.711c-0.693-1.278-1.651-2.316-2.874-3.114c-1.225-0.798-2.715-1.383-4.471-1.757
		c-1.757-0.372-3.701-0.559-5.829-0.559h-10.22V26.588z"/>
	<path fill="#A38A6C" d="M180.045,29.701c0,4.311-0.746,8.277-2.235,11.897c-1.491,3.62-3.553,6.747-6.188,9.381
		c-2.635,2.635-5.749,4.698-9.342,6.188c-3.593,1.49-7.492,2.235-11.697,2.235c-4.206,0-8.104-0.746-11.697-2.235
		c-3.593-1.49-6.707-3.553-9.342-6.188c-2.635-2.635-4.698-5.761-6.188-9.381c-1.491-3.619-2.236-7.585-2.236-11.897
		s0.745-8.276,2.236-11.897c1.49-3.619,3.553-6.747,6.188-9.381c2.635-2.635,5.749-4.697,9.342-6.188
		C142.479,0.746,146.377,0,150.583,0c4.204,0,8.104,0.746,11.697,2.235c3.593,1.491,6.707,3.553,9.342,6.188
		c2.635,2.635,4.697,5.762,6.188,9.381C179.299,21.425,180.045,25.39,180.045,29.701z M173.977,29.742
		c0-3.295-0.533-6.43-1.597-9.407c-1.066-2.975-2.609-5.592-4.631-7.851c-2.023-2.258-4.485-4.052-7.386-5.381
		c-2.902-1.329-6.162-1.994-9.78-1.994c-3.621,0-6.881,0.665-9.781,1.994c-2.902,1.328-5.363,3.123-7.385,5.381
		c-2.024,2.258-3.567,4.875-4.631,7.851c-1.066,2.977-1.597,6.112-1.597,9.407c0,3.296,0.531,6.431,1.597,9.406
		c1.064,2.977,2.607,5.58,4.631,7.812c2.022,2.232,4.484,4.012,7.385,5.341c2.9,1.329,6.16,1.992,9.781,1.992
		c3.619,0,6.879-0.663,9.78-1.992c2.901-1.328,5.362-3.109,7.386-5.341c2.022-2.232,3.565-4.835,4.631-7.812
		C173.444,36.173,173.977,33.038,173.977,29.742z"/>
	<path fill="#A38A6C" d="M218.449,50.062h0.16L232.74,1.437h6.866l14.133,48.625h0.16l13.812-48.625h6.068l-16.687,56.529h-6.707
		L236.174,9.422h-0.16l-14.212,48.544h-6.707L198.408,1.437h6.068L218.449,50.062z"/>
	<path fill="#A38A6C" d="M322.563,10.539c-1.226-1.703-2.795-3.074-4.711-4.112c-1.916-1.038-4.232-1.557-6.947-1.557
		c-1.384,0-2.795,0.213-4.232,0.639c-1.437,0.427-2.742,1.078-3.912,1.956c-1.172,0.878-2.116,1.984-2.835,3.314
		c-0.719,1.331-1.077,2.902-1.077,4.711c0,1.81,0.343,3.301,1.034,4.471c0.69,1.171,1.605,2.169,2.747,2.994
		c1.141,0.826,2.442,1.504,3.902,2.036c1.46,0.533,2.985,1.066,4.579,1.597c1.963,0.639,3.94,1.331,5.931,2.076
		c1.991,0.746,3.783,1.717,5.376,2.915c1.592,1.197,2.893,2.715,3.901,4.551c1.008,1.836,1.514,4.166,1.514,6.986
		c0,2.822-0.539,5.257-1.614,7.306c-1.077,2.05-2.474,3.74-4.192,5.07c-1.719,1.331-3.682,2.315-5.89,2.954
		c-2.21,0.639-4.431,0.958-6.667,0.958c-1.704,0-3.407-0.173-5.11-0.519c-1.704-0.347-3.327-0.865-4.871-1.557
		c-1.544-0.691-2.981-1.569-4.311-2.635c-1.331-1.064-2.503-2.288-3.513-3.673l4.951-3.673c1.224,2.023,2.94,3.713,5.15,5.07
		c2.208,1.357,4.803,2.036,7.785,2.036c1.437,0,2.9-0.226,4.391-0.679c1.49-0.452,2.834-1.144,4.032-2.076
		c1.198-0.93,2.182-2.076,2.954-3.433c0.771-1.357,1.158-2.94,1.158-4.751c0-1.968-0.387-3.605-1.158-4.91
		c-0.772-1.304-1.797-2.396-3.074-3.274c-1.277-0.878-2.742-1.609-4.391-2.196c-1.65-0.585-3.381-1.17-5.19-1.757
		c-1.864-0.585-3.7-1.25-5.509-1.996c-1.81-0.745-3.434-1.717-4.871-2.915c-1.437-1.197-2.595-2.674-3.473-4.431
		c-0.878-1.757-1.317-3.912-1.317-6.467c0-2.715,0.545-5.056,1.637-7.027c1.09-1.968,2.515-3.593,4.272-4.87
		c1.757-1.278,3.699-2.208,5.828-2.795C306.966,0.293,309.07,0,311.146,0c3.833,0,7.105,0.679,9.821,2.036
		c2.714,1.358,4.763,2.968,6.148,4.83L322.563,10.539z"/>
	<path fill="#A38A6C" d="M370.47,57.966h-5.749V33.614L343.563,1.437h7.186l17.006,27.386l17.166-27.386h6.707L370.47,33.614V57.966
		z"/>
</g>
</svg>
