<?xml version="1.0" encoding="utf-8"?>
<!-- Generator: Adobe Illustrator 17.1.0, SVG Export Plug-In . SVG Version: 6.00 Build 0)  -->
<!DOCTYPE svg PUBLIC "-//W3C//DTD SVG 1.1//EN" "http://www.w3.org/Graphics/SVG/1.1/DTD/svg11.dtd">
<svg version="1.1" id="Layer_1" xmlns="http://www.w3.org/2000/svg" xmlns:xlink="http://www.w3.org/1999/xlink" x="0px" y="0px"
	 viewBox="0 0 50 50" enable-background="new 0 0 50 50" xml:space="preserve">
<g>
	<path fill="#FFFFFF" d="M25,0C11.193,0,0,11.192,0,25c0,13.808,11.193,25,25,25c13.807,0,25-11.192,25-25C50,11.192,38.807,0,25,0z
		 M25,46.774C12.974,46.774,3.226,37.026,3.226,25C3.226,12.974,12.974,3.226,25,3.226c12.025,0,21.774,9.748,21.774,21.774
		C46.774,37.026,37.025,46.774,25,46.774z"/>
	<path fill="#FFFFFF" d="M18.366,28.199c0.36,0.148,0.684,0.006,0.789-0.393c0.072-0.276,0.245-0.975,0.321-1.265
		c0.106-0.396,0.065-0.534-0.227-0.878c-0.634-0.749-1.04-1.719-1.04-3.091c0-3.982,2.979-7.547,7.759-7.547
		c4.231,0,6.556,2.586,6.556,6.04c0,4.543-2.011,8.378-4.996,8.378c-1.649,0-2.882-1.363-2.488-3.035
		c0.475-1.996,1.392-4.151,1.392-5.592c0-1.29-0.692-2.366-2.125-2.366c-1.686,0-3.04,1.744-3.04,4.079
		c0,1.487,0.503,2.494,0.503,2.494s-1.725,7.308-2.027,8.587c-0.602,2.548-0.091,5.673-0.047,5.988
		c0.026,0.188,0.266,0.232,0.374,0.091c0.156-0.203,2.163-2.682,2.845-5.158c0.194-0.701,1.109-4.331,1.109-4.331
		c0.547,1.044,2.148,1.963,3.849,1.963c5.067,0,8.503-4.618,8.503-10.8c0-4.674-3.959-9.028-9.976-9.028
		c-7.487,0-11.263,5.368-11.263,9.844C15.139,24.89,16.165,27.301,18.366,28.199z"/>
</g>
</svg>
