<?xml version="1.0" encoding="utf-8"?>
<!-- Generator: Adobe Illustrator 17.1.0, SVG Export Plug-In . SVG Version: 6.00 Build 0)  -->
<!DOCTYPE svg PUBLIC "-//W3C//DTD SVG 1.1//EN" "http://www.w3.org/Graphics/SVG/1.1/DTD/svg11.dtd">
<svg version="1.1" id="Layer_1" xmlns="http://www.w3.org/2000/svg" xmlns:xlink="http://www.w3.org/1999/xlink" x="0px" y="0px"
	 viewBox="0 0 50 50" enable-background="new 0 0 50 50" xml:space="preserve">
<g>
	<path fill="#FFFFFF" d="M25,0C11.193,0,0,11.192,0,25c0,13.808,11.193,25,25,25c13.807,0,25-11.192,25-25C50,11.192,38.807,0,25,0z
		 M25,46.774C12.974,46.774,3.226,37.026,3.226,25C3.226,12.974,12.974,3.226,25,3.226c12.025,0,21.774,9.748,21.774,21.774
		C46.774,37.026,37.025,46.774,25,46.774z"/>
	<path fill="#FFFFFF" d="M13.846,33.997c2.235,1.433,4.889,2.269,7.741,2.269c9.376,0,14.673-7.919,14.354-15.023
		c0.986-0.711,1.843-1.601,2.52-2.614c-0.906,0.402-1.88,0.673-2.9,0.795c1.042-0.624,1.843-1.614,2.22-2.794
		c-0.976,0.579-2.057,0.999-3.206,1.226c-0.921-0.982-2.234-1.595-3.687-1.595c-3.259,0-5.655,3.042-4.919,6.201
		c-4.197-0.21-7.918-2.221-10.409-5.277c-1.323,2.27-0.686,5.24,1.563,6.743c-0.828-0.026-1.608-0.254-2.288-0.632
		c-0.054,2.34,1.622,4.528,4.051,5.016c-0.711,0.194-1.49,0.237-2.28,0.086c0.641,2.007,2.507,3.466,4.717,3.507
		C19.199,33.57,16.525,34.313,13.846,33.997z"/>
</g>
</svg>
